<svg xmlns="http://www.w3.org/2000/svg" width="110" height="110" viewBox="0 0 110 110">
  <rect width="110" height="110" rx="12" fill="#FFFBEB"/>
  <rect x="40" y="82" width="30" height="8" rx="2" fill="#B45309"/>
  <rect x="34" y="90" width="42" height="8" rx="3" fill="#D97706"/>
  <path d="M32,20 L32,58 C32,72 43,82 55,82 C67,82 78,72 78,58 L78,20 Z" fill="#FBBF24" stroke="#D97706" stroke-width="2"/>
  <path d="M32,28 C20,28 16,36 16,44 C16,52 22,58 32,58" fill="none" stroke="#FBBF24" stroke-width="8" stroke-linecap="round"/>
  <path d="M78,28 C90,28 94,36 94,44 C94,52 88,58 78,58" fill="none" stroke="#FBBF24" stroke-width="8" stroke-linecap="round"/>
  <path d="M45,48 L52,55 L68,38" stroke="white" stroke-width="5" stroke-linecap="round" stroke-linejoin="round" fill="none"/>
</svg>
